<svg xmlns="http://www.w3.org/2000/svg" viewBox="0 0 146.3 40.37">
  <path d="M43.09,19.31c.25,0,.49,0,.73,0a2.48,2.48,0,0,0-2.13-1.23,2,2,0,0,1-1.89-1.35,12.09,12.09,0,0,0-2.09.82l.19,0a2,2,0,0,1,2,2,2.83,2.83,0,0,1,0,.29A8.8,8.8,0,0,1,43.09,19.31Z" transform="translate(0)"/>
  <path d="M60.46,28,55.29,6.65C54.93,4.3,52.69,0,46.69,0a1.5,1.5,0,0,0,0,3c4.85,0,5.57,3.73,5.64,4.14l4.76,19.7H55a12,12,0,0,0-5.3-8.52,2.5,2.5,0,0,0-1.53,2.3,2.06,2.06,0,0,1,0,.26,9.21,9.21,0,0,1,4,7.47,9.3,9.3,0,0,1-.14,1.5,9,9,0,0,1-17.79,0,9.3,9.3,0,0,1-.14-1.5,9.34,9.34,0,0,1,.95-4,2,2,0,0,1-1.86-2,.71.71,0,0,0-.19-.49,11.84,11.84,0,0,0-1.79,5H29.35a12,12,0,0,0-23.86,0H3.42L8.19,7.14C8.25,6.73,9,3,13.83,3a1.5,1.5,0,0,0,0-3c-6,0-8.24,4.3-8.6,6.65L.05,28a1.42,1.42,0,0,0,1.43,1.82h4a12.65,12.65,0,0,0,.38,1.83.75.75,0,0,0,.1-.36,2,2,0,0,1,2-2,2.42,2.42,0,0,1,.48.06,8.79,8.79,0,0,1-.07-1,9.29,9.29,0,0,1,.13-1.5,9,9,0,0,1,17.8,0,9.29,9.29,0,0,1,.13,1.5A9,9,0,0,1,12,35.58a2,2,0,0,1-1.3.49.75.75,0,0,0-.74.75,2,2,0,0,1-.18.81,11.91,11.91,0,0,0,7.61,2.74A12,12,0,0,0,29.35,29.85h1.81a12,12,0,0,0,23.86,0h4A1.41,1.41,0,0,0,60.46,28Z" transform="translate(0)"/>
</svg>
