<svg xmlns="http://www.w3.org/2000/svg" viewBox="0 0 146.3 40.37">
  <path d="M98.5,9.87a3.63,3.63,0,0,1-3.63-3.62,3.62,3.62,0,0,1-3.62,3.62,3.63,3.63,0,0,1,3.62,3.63A3.64,3.64,0,0,1,98.5,9.87Z" transform="translate(0)"/>
  <path d="M50.69,16.12a4.49,4.49,0,0,1-4.5-4.49,4.5,4.5,0,0,1-4.5,4.49,4.51,4.51,0,0,1,4.5,4.5A4.5,4.5,0,0,1,50.69,16.12Z" transform="translate(0)"/>
  <path d="M37.9,19.63a2.75,2.75,0,0,1-2.75-2.75,2.75,2.75,0,0,1-2.74,2.75,2.74,2.74,0,0,1,2.74,2.74A2.75,2.75,0,0,1,37.9,19.63Z" transform="translate(0)"/>
  <path d="M10.73,34.07A2.75,2.75,0,0,1,8,31.32a2.75,2.75,0,0,1-2.74,2.75A2.75,2.75,0,0,1,8,36.82,2.75,2.75,0,0,1,10.73,34.07Z" transform="translate(0)"/>
</svg>
