<svg xmlns="http://www.w3.org/2000/svg" viewBox="0 0 146.3 40.37">
  <path d="M71.87,18.66a1.29,1.29,0,0,1,1.26-1.29h7.18c5.09,0,8.44,2.71,8.44,7.15v.06c0,4.86-4.06,7.38-8.86,7.38H74.42v6.82a1.28,1.28,0,1,1-2.55,0V18.66Zm8.12,11c3.73,0,6.18-2,6.18-5v-.06c0-3.22-2.41-4.89-6-4.89h-5.7v9.91Z"/>
  <path d="M93.6,18.5a1.28,1.28,0,1,1,2.55,0V38.78a1.28,1.28,0,1,1-2.55,0Z"/>
  <path d="M102.74,18.53A1.28,1.28,0,0,1,104,17.28h.35a1.55,1.55,0,0,1,1.29.74l13.69,17.45v-17a1.24,1.24,0,1,1,2.48,0V38.82A1.14,1.14,0,0,1,120.65,40h-.13a1.71,1.71,0,0,1-1.32-.78l-14-17.86V38.82A1.26,1.26,0,0,1,104,40.07a1.24,1.24,0,0,1-1.22-1.25V18.53Z"/>
  <path d="M128.17,18.5a1.28,1.28,0,1,1,2.55,0V30.83l12.84-13.17a1.48,1.48,0,0,1,1-.45,1.28,1.28,0,0,1,1.23,1.26,1.29,1.29,0,0,1-.42.9l-8,7.92L146,37.85a1.44,1.44,0,0,1,.35.94A1.31,1.31,0,0,1,145,40.07a1.21,1.21,0,0,1-1-.58L135.59,29l-4.87,4.86v4.9a1.27,1.27,0,1,1-2.54,0V18.5Z"/>
</svg>
