<svg xmlns="http://www.w3.org/2000/svg" viewBox="0 0 146.3 40.37">
  <path d="M60.46,28,55.29,6.65C54.93,4.3,52.69,0,46.69,0a1.5,1.5,0,0,0,0,3c4.85,0,5.57,3.73,5.64,4.14l4.76,19.7H55a12,12,0,0,0-23.85,0H29.35a12,12,0,0,0-23.86,0H3.42L8.19,7.14C8.25,6.73,9,3,13.83,3a1.5,1.5,0,0,0,0-3c-6,0-8.24,4.3-8.6,6.65L.05,28a1.42,1.42,0,0,0,1.43,1.82h4a12,12,0,0,0,23.85,0h1.81a12,12,0,0,0,23.86,0h4A1.41,1.41,0,0,0,60.46,28ZM26.31,29.84a9,9,0,0,1-17.92-1.5,9.29,9.29,0,0,1,.13-1.5,9,9,0,0,1,17.79,0,8.29,8.29,0,0,1,.14,1.5A8.12,8.12,0,0,1,26.31,29.84Zm25.68,0a9,9,0,0,1-17.93-1.5,9.3,9.3,0,0,1,.14-1.5,9,9,0,0,1,17.79,0,9.3,9.3,0,0,1,.14,1.5A9.09,9.09,0,0,1,52,29.84Z" transform="translate(0)"/>
</svg>
